<svg xmlns="http://www.w3.org/2000/svg" viewBox="0 0 24 24" role="img" aria-label="GitHub logo">
  <rect width="24" height="24" rx="5" fill="#111111"/>
  <path fill="#ffffff" d="M12 4.4a7.6 7.6 0 0 0-2.4 14.8c.4.1.6-.2.6-.5v-1.7c-2.5.5-3.1-1-3.1-1-.4-1-.9-1.2-.9-1.2-.8-.6.1-.6.1-.6.9.1 1.4.9 1.4.9.8 1.3 2 1 2.5.8.1-.6.3-1 .6-1.2-2-.2-4.2-1-4.2-4.5 0-1 .4-1.9 1-2.6-.1-.2-.4-1.2.1-2.5 0 0 .8-.3 2.7 1a9.3 9.3 0 0 1 4.9 0c1.9-1.3 2.7-1 2.7-1 .5 1.3.2 2.3.1 2.5.6.7 1 1.6 1 2.6 0 3.5-2.2 4.3-4.2 4.5.3.3.6.8.6 1.7v2.5c0 .3.2.6.6.5A7.6 7.6 0 0 0 12 4.4Z"/>
</svg>
